<svg width="451" height="452" viewBox="0 0 451 452" fill="none" xmlns="http://www.w3.org/2000/svg">
<path d="M267.386 82.3C234.499 42.949 218.053 23.2736 199.149 26.3043C180.249 29.3346 171.406 53.0643 153.719 100.523L149.143 112.8C144.116 126.287 141.603 133.03 136.713 137.997C131.826 142.967 125.113 145.593 111.686 150.853L99.4659 155.64C52.2216 174.143 28.6002 183.393 25.9062 202.303C23.2122 221.213 43.2299 237.26 83.2649 269.347L93.6226 277.65C104.999 286.77 110.689 291.33 113.979 297.57C117.273 303.81 117.796 311.027 118.846 325.457L119.799 338.597C123.489 389.383 125.336 414.777 142.573 423.433C159.813 432.09 181.026 418.277 223.456 390.65L234.433 383.503C246.489 375.653 252.519 371.727 259.443 370.617C266.369 369.507 273.406 371.337 287.476 375L300.289 378.333C349.813 391.217 374.576 397.66 387.923 384.1C401.269 370.54 394.366 345.957 380.553 296.793L376.979 284.073C373.053 270.103 371.093 263.117 372.079 256.19C373.066 249.263 376.889 243.18 384.539 231.01L391.503 219.933C418.419 177.107 431.879 155.697 422.889 138.66C413.899 121.623 388.419 120.243 337.453 117.487L324.266 116.77C309.783 115.987 302.543 115.597 296.226 112.423C289.913 109.253 285.239 103.663 275.893 92.48L267.386 82.3Z" stroke="#FFBF66" stroke-width="50"/>
</svg>
