<svg width="584" height="569" viewBox="0 0 584 569" fill="none" xmlns="http://www.w3.org/2000/svg">
<path opacity="0.5" d="M225.03 509L192.502 524.803C126.471 543.057 93.4549 552.183 75.6579 532.973C57.8612 513.763 67.0693 478.94 85.4856 409.29L90.2503 391.273C95.4836 371.48 98.1002 361.583 96.7846 351.77C95.4686 341.957 90.3692 333.337 80.1706 316.1L70.8856 300.403C34.9956 239.737 17.0509 209.404 29.0359 185.268C41.0206 161.132 74.9979 159.178 142.953 155.271L160.534 154.26C179.844 153.149 189.5 152.594 197.919 148.102C206.339 143.609 212.569 135.689 225.03 119.847L236.374 105.425C280.224 49.6779 302.151 21.8042 327.354 26.0976C352.557 30.3909 364.351 64.0076 387.931 131.241L394.031 148.635C400.734 167.741 404.084 177.293 410.604 184.33C417.124 191.367 426.074 195.092 443.974 202.541L460.267 209.322C523.261 235.535 554.754 248.642 558.347 275.431C561.411 298.287 542.434 318.187 503.644 351.77" stroke="#FFBF66" stroke-width="50"/>
</svg>
