<svg width="194" height="176" viewBox="0 0 194 176" fill="none" xmlns="http://www.w3.org/2000/svg">
<path d="M183.053 0.172363L166.915 158.749L96.998 175.828L27.0795 158.749L10.9453 0.172363H183.053ZM150.535 32.4165H96.9351H42.3858L44.9946 51.5661H96.9351H99.8526L96.9351 52.6678L46.8929 71.5761L48.5525 90.2943L96.9351 90.4366L122.867 90.5112L121.207 115.47L96.9347 121.669V121.649L96.7357 121.7L73.2951 116.331L71.8727 100.839H71.795H50.0526H49.9761L52.822 130.747L96.9354 142.582V142.561L97.015 142.582L140.892 130.963L146.584 71.5761H96.9354H96.813L96.9354 71.528L148.402 51.5661L150.535 32.4165Z" fill="#D7A156"/>
</svg>
