<svg width="131" height="101" viewBox="0 0 131 101" fill="none" xmlns="http://www.w3.org/2000/svg">
<path d="M130.662 22.1485C130.071 19.8551 128.752 17.7563 126.91 16.0226C126.522 15.6448 126.116 15.3065 125.676 14.9682C122.413 12.4396 117.832 10.8623 112.829 10.8623H18.1714C13.1675 10.8623 8.60353 12.4396 5.32469 14.9682C4.88589 15.3065 4.4801 15.6448 4.09068 16.0226C2.24772 17.7561 0.92877 19.8551 0.354621 22.1485C0.118719 23.0336 0 23.9483 0 24.8731V76.1292C0 78.0956 0.540887 79.9858 1.50548 81.6927C2.40022 83.3221 3.71943 84.7965 5.32443 86.0327C5.73125 86.3456 6.13525 86.6332 6.5761 86.9193C9.71959 88.9264 13.7773 90.1386 18.1714 90.1386H112.829C117.224 90.1386 121.3 88.9264 124.425 86.9066C124.864 86.6332 125.271 86.3456 125.676 86.0327C127.281 84.7965 128.6 83.3221 129.513 81.6927V81.6801C130.477 79.9731 131 78.0956 131 76.1294V24.8731C131 23.9483 130.883 23.0336 130.662 22.1485ZM11.8998 20.0369C13.5232 18.7867 15.7034 18.0298 18.1714 18.0298H112.829C115.297 18.0298 117.496 18.7867 119.1 20.0369C119.387 20.2596 119.658 20.5078 119.896 20.7544L70.2836 54.0913C68.9152 55.0159 67.225 55.4725 65.5 55.4725C63.7924 55.4725 62.1032 55.0159 60.7167 54.0913L11.1227 20.7402C11.3422 20.4936 11.6127 20.2596 11.8998 20.0369ZM9.29639 76.1292V28.1572L45.1996 52.3054L9.31456 76.4281C9.29639 76.3365 9.29639 76.2336 9.29639 76.1292ZM112.829 82.9698H18.1714C16.5643 82.9698 15.0607 82.6441 13.7773 82.0718L51.6388 56.6327L55.1735 59.0034C58.1315 60.9851 61.833 61.9888 65.5 61.9888C69.1859 61.9888 72.8872 60.9851 75.8449 59.0034L79.3778 56.6327L117.225 82.0718C115.939 82.6441 114.436 82.9698 112.829 82.9698ZM121.704 76.1292C121.704 76.2336 121.704 76.3365 121.686 76.4281L85.8014 52.3195L121.704 28.17V76.1292Z" fill="#D7A156"/>
</svg>
