<svg width="302" height="306" viewBox="0 0 302 306" fill="none" xmlns="http://www.w3.org/2000/svg">
<path opacity="0.6" d="M146.805 25.5H104.86C81.6951 25.5 62.916 44.5278 62.916 68C62.916 91.4721 81.6951 110.5 104.86 110.5H146.805V25.5Z" fill="#D7A156"/>
<path opacity="0.4" d="M146.805 110.498H104.86C81.6951 110.498 62.916 129.526 62.916 152.998C62.916 176.47 81.6951 195.498 104.86 195.498H146.805V110.498Z" fill="#D7A156"/>
<path d="M230.686 152.998C230.686 176.47 211.907 195.498 188.741 195.498C165.576 195.498 146.797 176.47 146.797 152.998C146.797 129.526 165.576 110.498 188.741 110.498C211.907 110.498 230.686 129.526 230.686 152.998Z" fill="#D7A156"/>
<path opacity="0.2" d="M104.86 195.502H146.805V238.002C146.805 261.474 128.026 280.502 104.86 280.502C81.6951 280.502 62.916 261.474 62.916 238.002C62.916 214.53 81.6951 195.502 104.86 195.502Z" fill="#D7A156"/>
<path opacity="0.8" d="M146.797 25.5H188.741C211.907 25.5 230.686 44.5278 230.686 68C230.686 91.4721 211.907 110.5 188.741 110.5H146.797V25.5Z" fill="#D7A156"/>
</svg>
