<svg width="192" height="176" viewBox="0 0 192 176" fill="none" xmlns="http://www.w3.org/2000/svg">
<g clip-path="url(#clip0_14_43)">
<path fill-rule="evenodd" clip-rule="evenodd" d="M148.176 52.8H148.108H65.3946L67.3726 70.4H146.208C145.053 85.8177 141.557 118.482 140.274 133.345L95.9947 144.77V144.805L95.8968 144.848L51.5878 130.556L48.5523 96.8001H70.271L71.8084 114.954L95.936 123.2H95.9947L120.083 115.281L122.561 88.0001H47.5829C47.2206 84.4713 42.5596 38.6496 41.7469 35.2H150.115C149.508 41.008 148.891 46.9744 148.176 52.8ZM9.59961 0L25.3256 159.702L95.8968 176L166.654 159.376L182.4 0H9.59961Z" fill="#D7A156"/>
</g>
<defs>
<clipPath id="clip0_14_43">
<rect width="192" height="176" fill="white"/>
</clipPath>
</defs>
</svg>
