<svg width="134" height="126" viewBox="0 0 134 126" fill="none" xmlns="http://www.w3.org/2000/svg">
<path fill-rule="evenodd" clip-rule="evenodd" d="M11.166 31.5C11.166 19.902 21.165 10.5 33.4993 10.5H100.499C112.833 10.5 122.833 19.902 122.833 31.5V94.5C122.833 106.098 112.833 115.5 100.499 115.5H33.4993C21.165 115.5 11.166 106.098 11.166 94.5V31.5ZM33.4993 21C27.3322 21 22.3327 25.701 22.3327 31.5V94.5C22.3327 100.299 27.3322 105 33.4993 105H100.499C106.667 105 111.666 100.299 111.666 94.5V31.5C111.666 25.701 106.667 21 100.499 21H33.4993ZM66.9993 47.25C57.7483 47.25 50.2493 54.3013 50.2493 63C50.2493 71.6987 57.7483 78.75 66.9993 78.75C76.2504 78.75 83.7493 71.6987 83.7493 63C83.7493 54.3013 76.2504 47.25 66.9993 47.25ZM39.0827 63C39.0827 48.5025 51.5814 36.75 66.9993 36.75C82.4172 36.75 94.916 48.5025 94.916 63C94.916 77.4973 82.4172 89.25 66.9993 89.25C51.5814 89.25 39.0827 77.4973 39.0827 63ZM97.7077 42C102.333 42 106.083 38.4743 106.083 34.125C106.083 29.7757 102.333 26.25 97.7077 26.25C93.0824 26.25 89.3327 29.7757 89.3327 34.125C89.3327 38.4743 93.0824 42 97.7077 42Z" fill="#D7A156"/>
</svg>
