<svg width="193" height="183" viewBox="0 0 193 183" fill="none" xmlns="http://www.w3.org/2000/svg">
<g clip-path="url(#clip0_14_52)">
<path d="M164.05 0H28.95C12.9614 0 0 12.2898 0 27.45V155.55C0 170.71 12.9614 183 28.95 183H164.05C180.039 183 193 170.71 193 155.55V27.45C193 12.2898 180.039 0 164.05 0Z" fill="#D7A156"/>
<path d="M122.133 132.246C125.902 138.322 131.18 142.611 139.85 142.611C147.389 142.611 152.289 139.037 152.289 134.033C152.289 128.314 147.389 126.17 139.096 122.596L134.572 120.809C121.379 115.447 112.709 109.014 112.709 95.0742C112.709 82.207 122.887 72.1992 139.096 72.1992C150.781 72.1992 159.074 76.1309 164.729 86.1387L150.781 94.7168C147.766 89.3555 144.373 87.2109 139.096 87.2109C133.818 87.2109 130.426 90.4277 130.426 94.7168C130.426 99.7207 133.818 101.865 141.734 105.082L146.258 106.869C161.713 113.303 170.383 119.379 170.383 134.033C170.383 149.402 157.566 157.98 140.227 157.98C123.264 157.98 112.332 150.475 107.055 140.467L122.133 132.246ZM58.0508 133.676C61.0664 138.322 63.3281 142.611 69.7363 142.611C75.7676 142.611 79.5371 140.467 79.5371 131.889V72.5566H97.6309V131.174C97.6309 149.045 86.6992 156.908 70.4902 156.908C55.7891 156.908 47.4961 149.76 43.3496 141.182L58.0508 133.676Z" fill="white"/>
</g>
<defs>
<clipPath id="clip0_14_52">
<rect width="193" height="183" fill="white"/>
</clipPath>
</defs>
</svg>
