<svg width="87" height="73" viewBox="0 0 87 73" fill="none" xmlns="http://www.w3.org/2000/svg">
<path d="M86.7789 27.8752C86.1654 26.213 84.3942 25.0859 82.3959 25.0859H55.94L47.8825 3.17455C47.2709 1.51239 45.5005 0.383301 43.5 0.383301C41.4997 0.383301 39.7291 1.51239 39.1175 3.17455L31.0602 25.0857H4.60431C2.60585 25.0857 0.834584 26.2127 0.221165 27.875C-0.390385 29.5372 0.295251 31.3551 1.92022 32.3721L23.3722 45.8242L15.1143 67.7202C14.4866 69.3814 15.1616 71.2034 16.7797 72.2315C18.3989 73.2594 20.5928 73.2551 22.2071 72.2229L43.5 58.5957L64.7933 72.2231C66.4076 73.2554 68.6014 73.2597 70.2208 72.2317C71.8388 71.2037 72.5137 69.3815 71.8879 67.7204L63.628 45.8243L85.08 32.3722C86.7048 31.3552 87.3906 29.5372 86.7789 27.8752Z" fill="#FFFAEC"/>
</svg>
