<svg width="242" height="226" viewBox="0 0 242 226" fill="none" xmlns="http://www.w3.org/2000/svg">
<path d="M196.171 176.993L155.469 113.007L196.171 48.9926L215.818 112.993L196.163 176.979L196.171 176.993ZM105.466 170.849L54.2829 123.41H135.648L176.334 187.403L105.458 170.863L105.466 170.849ZM105.466 55.1511L176.334 38.6108L135.655 102.604H54.2754L105.466 55.1511ZM234.407 91.2264L209.586 7.09082L116.938 29.6414L103.235 51.6199L75.405 51.4292L7.59961 113.007L75.4125 174.592L103.227 174.387L116.968 196.366L209.579 218.909L234.407 134.809L220.31 113.007L234.407 91.2264Z" fill="#D7A156"/>
</svg>
