<svg width="155" height="128" viewBox="0 0 155 128" fill="none" xmlns="http://www.w3.org/2000/svg">
<path fill-rule="evenodd" clip-rule="evenodd" d="M22.605 64C22.605 38.9631 47.1827 18.6667 77.5007 18.6667C107.819 18.6667 132.396 38.9631 132.396 64C132.396 89.0368 107.819 109.333 77.5007 109.333C66.701 109.333 56.6484 106.764 48.1668 102.326C46.5883 101.5 44.6541 101.279 42.8636 101.721L24.2691 106.303L31.2702 92.7749C32.0977 91.176 31.9293 89.3445 30.819 87.8672C25.6125 80.9387 22.605 72.7675 22.605 64ZM77.5007 8C40.049 8 9.68829 33.0721 9.68829 64C9.68829 73.8032 12.744 83.0309 18.114 91.0544L6.9787 112.571C5.9943 114.473 6.43064 116.674 8.09825 118.217C9.76585 119.761 12.364 120.369 14.7643 119.777L43.8231 112.616C53.7498 117.315 65.2537 120 77.5007 120C114.953 120 145.313 94.928 145.313 64C145.313 33.0721 114.953 8 77.5007 8ZM92.3064 75.6395L83.8188 80.5765C79.8437 78.7067 75.4488 76.0965 71.0404 72.456C66.4576 68.6715 63.06 64.7643 60.5548 61.1803L65.9486 57.3995C68.2633 55.7771 68.8969 53.0418 67.4709 50.8282L60.5982 40.1615C59.6727 38.7252 58.004 37.7163 56.0664 37.4215C54.1288 37.1269 52.1343 37.5787 50.6499 38.6485L48.6123 40.1171C43.7121 43.6487 40.8141 49.4523 43.216 55.3285C45.7062 61.4203 51.0204 71.008 61.9071 79.9984C73.6199 89.6709 85.5174 93.48 92.4749 94.9595C98.0808 96.1509 103.386 94.5536 107.124 92.0384L110.944 89.4677C112.578 88.3685 113.459 86.6795 113.306 84.9435C113.151 83.2075 111.981 81.6427 110.17 80.7515L99.3311 75.4181C97.1417 74.3413 94.3905 74.4277 92.3064 75.6395Z" fill="#D7A156"/>
</svg>
